<svg width="32" height="32" viewBox="0 0 32 32" fill="none" xmlns="http://www.w3.org/2000/svg">
<rect width="32" height="32" rx="8" fill="white"/>
<g clip-path="url(#clip0_557_56)">
<path d="M9.32796 3.75649C9.06994 3.79873 8.73002 3.8621 8.5703 3.90012C8.30819 3.95927 8.18123 3.99729 7.71025 4.1367C7.41947 4.22542 6.40379 4.65211 6.29321 4.73238C6.23178 4.77463 6.10482 4.85067 6.00653 4.89714C5.90824 4.94361 5.72394 5.04923 5.60108 5.1295C5.47821 5.20976 5.31849 5.30693 5.24477 5.34918C4.36834 5.86458 2.43937 7.79524 2.09125 8.50498C2.03392 8.62327 1.8701 8.919 1.73085 9.16825C1.5056 9.55692 1.34997 9.85687 1.04281 10.4948C0.90766 10.7736 0.809368 11.0271 0.809368 11.0905C0.809368 11.1243 0.772509 11.2299 0.731554 11.3186C0.686504 11.4115 0.629167 11.589 0.600499 11.7073C0.571831 11.8298 0.534971 11.9481 0.518589 11.9734C0.506303 11.9945 0.469444 12.1213 0.440775 12.248C0.412107 12.3748 0.35477 12.586 0.313815 12.7127C0.129519 13.2831 -0.0179181 14.7068 -0.00563167 15.7967C-0.0015362 16.5107 0.121328 17.5204 0.252383 17.9724C0.35477 18.3231 0.473539 18.8004 0.543162 19.1088C0.575926 19.2694 0.629167 19.4595 0.661931 19.5313C0.690599 19.6031 0.756127 19.7679 0.809368 19.8946C1.10834 20.6255 1.72675 21.8422 2.00525 22.2393C2.79977 23.3715 3.41409 24.0939 4.14718 24.7487C4.71236 25.2515 4.96628 25.4416 6.0311 26.1513C6.25226 26.2992 6.43655 26.3245 6.61675 26.2274C6.72733 26.164 6.87067 25.8683 6.87067 25.6993C6.87067 25.5894 6.60856 25.2599 6.52256 25.2599C6.49389 25.2599 6.35464 25.1796 6.2113 25.0867C6.06796 24.9895 5.87547 24.8586 5.78537 24.7994C5.11371 24.3474 3.62296 22.8392 3.29942 22.2773C3.25846 22.2097 3.15198 22.0492 3.05778 21.9224C2.32879 20.9128 1.75133 19.7425 1.44007 18.6484C1.40731 18.5301 1.34178 18.3146 1.30083 18.1625C1.03052 17.2162 0.895373 15.8559 0.973187 14.8462C1.01414 14.2674 1.11243 13.5788 1.17796 13.4098C1.19434 13.3633 1.2353 13.1817 1.27216 13.0085C1.42779 12.2184 1.69399 11.5045 2.32879 10.1568C2.60319 9.57804 2.87349 9.14291 3.30351 8.5937C3.43457 8.42894 3.56562 8.25573 3.59839 8.20503C3.81135 7.88396 4.94989 6.794 5.47002 6.40956C6.11301 5.94063 7.1164 5.4041 7.7512 5.19286C7.97645 5.11682 8.25494 5.01965 8.36552 4.97741C8.54982 4.90981 8.87746 4.82955 9.58188 4.68591C9.71293 4.66056 9.8358 4.64789 9.86037 4.66478C9.88085 4.67746 9.95457 4.66056 10.0201 4.62254C10.0897 4.58874 10.1921 4.55917 10.2494 4.55917C10.3354 4.55917 10.3723 4.52537 10.4378 4.36906C10.532 4.14515 10.5116 3.91702 10.3805 3.76494C10.274 3.64665 10.0119 3.64665 9.32796 3.75649Z" fill="#FE8E3C"/>
<path d="M9.7293 6.36308C9.5859 6.51517 9.57771 6.73485 9.70471 6.90384C9.78256 7.00946 9.81123 7.01791 9.9915 7.00101C10.2414 6.97566 10.3152 6.90384 10.3397 6.66303C10.3684 6.41377 10.2701 6.29125 10.0243 6.26168C9.8604 6.24478 9.82762 6.25746 9.7293 6.36308Z" fill="#FE8E3C"/>
<path d="M8.16076 6.91218C8.09523 6.95866 7.97237 7.0178 7.89456 7.0516C7.64883 7.14876 7.14099 7.39802 7.03451 7.47406C6.97717 7.51631 6.79697 7.63882 6.63315 7.75289C6.46524 7.86695 6.26865 8.00214 6.19084 8.05706C6.01064 8.17958 5.08916 9.08788 4.85571 9.37093C4.24549 10.1102 3.65164 11.1453 3.28715 12.1C3.07828 12.645 2.80798 13.6801 2.73835 14.1912C2.63187 15.015 2.64825 16.236 2.77931 16.8528C2.79978 16.9584 2.83664 17.1358 2.86122 17.2541C3.18885 18.9228 3.9629 20.4226 5.15059 21.6858C5.74443 22.3195 6.70277 23.0714 7.38262 23.439C7.51777 23.5108 7.65702 23.5911 7.68978 23.6122C7.80855 23.6925 8.28772 23.9037 8.5826 24.0093C9.42626 24.3093 10.5361 24.2079 11.2979 23.7643C11.8672 23.4305 12.1129 23.1813 12.4242 22.6152C12.7108 22.0829 12.8091 21.7956 12.8501 21.314C12.891 20.8915 12.8501 20.2705 12.7764 20.1184C12.7559 20.0762 12.7272 19.9832 12.7149 19.9114C12.7026 19.8438 12.6166 19.6199 12.5224 19.4214L12.3545 19.0623L11.9163 19.0369C11.5723 19.02 11.4044 18.9904 11.13 18.889C10.4829 18.6525 9.82762 18.23 9.52046 17.8498C9.42217 17.7273 9.34436 17.6639 9.31569 17.685C9.12729 17.8075 8.80785 17.8582 8.6727 17.7822C8.59079 17.7357 7.77988 16.7514 7.74302 16.6542C7.70616 16.5613 7.8536 16.4345 8.07476 16.3627C8.18943 16.3247 8.35735 16.2571 8.44745 16.2064L8.61126 16.1135L8.59488 15.6065C8.5826 15.1418 8.61536 14.8292 8.73822 14.2969C8.75051 14.2504 8.70137 14.3222 8.63584 14.4574C8.4925 14.7362 8.13619 15.1798 7.98056 15.2685C7.24747 15.6825 6.87888 15.7713 6.29732 15.6699C5.8632 15.5938 5.58471 15.446 5.27345 15.1207C4.79428 14.6264 4.57722 14.1194 4.57722 13.5153C4.57722 13.0252 4.79428 12.4169 5.09735 12.0494C5.32669 11.7747 5.81405 11.4537 6.12531 11.3734C6.4038 11.3016 7.10823 11.2974 7.31709 11.365C7.90275 11.5551 8.36554 11.9606 8.64403 12.5225C8.82423 12.8901 8.87338 13.1393 8.85699 13.5575C8.8488 13.7646 8.8488 13.9378 8.85699 13.9378C8.86518 13.9378 8.95938 13.7646 9.06586 13.5575C9.2174 13.2491 9.31159 13.1266 9.55322 12.8985L9.85629 12.6239L9.78257 12.4887C9.74162 12.4127 9.69247 12.2944 9.6679 12.2268C9.59418 12.0029 9.32388 11.6015 9.04539 11.3016C8.47611 10.6932 7.81265 10.3679 6.99355 10.3046C6.27275 10.2454 5.83044 10.3341 5.17516 10.6721C4.79428 10.8707 4.67142 10.8833 4.72466 10.7186C4.76152 10.5961 5.05639 10.1905 5.13011 10.1609C5.16287 10.1483 5.24888 10.03 5.3226 9.89478C5.47823 9.60751 6.28094 8.77103 6.62496 8.53867C6.74782 8.45418 6.91574 8.33166 6.99765 8.26829C7.18194 8.12466 7.59968 7.90498 8.20172 7.64305C8.68089 7.43182 8.75461 7.36 8.75461 7.11074C8.75461 6.94176 8.69317 6.88684 8.46383 6.85726C8.32868 6.84036 8.25086 6.85726 8.16076 6.91218ZM3.79498 14.7785C3.84413 14.8461 3.88099 14.9094 3.88099 14.9221C3.88099 15.0024 4.28644 15.5389 4.55674 15.8177C5.10963 16.3838 5.72805 16.6584 6.55943 16.7134C6.9526 16.7387 6.97307 16.7472 7.12461 16.8866C7.37034 17.1189 7.93551 18.0061 7.93551 18.1666C7.93551 18.1835 7.7635 18.3398 7.55054 18.5131C6.81745 19.1214 6.53486 19.7466 6.46524 20.9C6.44066 21.3436 6.44476 21.4999 6.48981 21.6351C6.54714 21.8125 6.51438 21.9223 6.39971 21.9223C6.32599 21.9223 5.67071 21.1746 5.37174 20.7563C5.02772 20.2663 4.69189 19.7086 4.54036 19.3664C4.46664 19.2017 4.38883 19.0369 4.36835 18.9947C4.28235 18.8257 4.25777 18.7665 4.20863 18.6271C4.18406 18.5469 4.10624 18.3272 4.04071 18.1455C3.97519 17.9596 3.86461 17.5836 3.79908 17.3048C3.72946 17.026 3.66803 16.7852 3.65574 16.7683C3.64345 16.7472 3.60659 16.519 3.57383 16.2571C3.50011 15.6699 3.49192 14.7785 3.56154 14.7067C3.63936 14.6264 3.70488 14.6475 3.79498 14.7785ZM9.62694 18.5046C9.67609 18.53 9.7539 18.5849 9.79895 18.6271C9.8481 18.6736 9.97915 18.7074 10.1348 18.7243C10.8351 18.7834 11.5969 19.5016 11.8057 20.2959C11.9655 20.9042 11.8672 21.6182 11.5641 22.0364C11.4945 22.1336 11.3839 22.2941 11.3143 22.3913C11.1955 22.5603 10.8597 22.8222 10.5607 22.9743C10.0652 23.2278 9.27064 23.2616 8.81604 23.0461C8.45154 22.8729 8.16486 22.6236 7.92322 22.2645C7.4973 21.6266 7.42358 21.352 7.50549 20.6761C7.5792 20.0381 7.75531 19.6917 8.18124 19.3242C8.50069 19.0496 8.94709 18.7919 9.19692 18.7327C9.29521 18.7116 9.32797 18.682 9.32797 18.6102C9.32797 18.5553 9.34026 18.5004 9.35664 18.4877C9.3976 18.4412 9.52865 18.4539 9.62694 18.5046Z" fill="#FE8E3C"/>
<path d="M9.4099 20.0888C9.16409 20.1775 9.0166 20.3296 8.96334 20.5493C8.89779 20.8197 8.90598 20.9464 9.0166 21.183C9.09034 21.352 9.1477 21.4154 9.30748 21.4999C9.414 21.5548 9.56968 21.6055 9.65162 21.6055C9.85646 21.6055 10.1678 21.4069 10.2948 21.1957C10.3891 21.0478 10.4014 20.9844 10.385 20.7647C10.3645 20.4394 10.258 20.2704 9.97937 20.1268C9.74995 20.0043 9.66391 20.0001 9.4099 20.0888Z" fill="#FE8E3C"/>
<path d="M6.44482 12.7758C6.26046 12.8434 6.2113 12.8857 6.09659 13.1054C5.99416 13.2913 5.98187 13.6166 6.06791 13.8236C6.2113 14.1827 6.75619 14.3939 7.02659 14.1996C7.08804 14.1573 7.16998 14.1066 7.20685 14.094C7.28469 14.0644 7.46086 13.7306 7.50183 13.5321C7.5428 13.3377 7.29698 12.8815 7.09623 12.7843C6.92007 12.6998 6.66196 12.6956 6.44482 12.7758Z" fill="#FE8E3C"/>
<path d="M14.0378 25.0448C14.005 25.066 13.8002 25.104 13.5871 25.1293C13.3741 25.1589 13.1815 25.1969 13.1529 25.2223C13.0832 25.2814 13.0422 25.5433 13.0914 25.6363C13.1529 25.7504 13.411 25.7757 13.8206 25.7039C14.3942 25.6067 14.4188 25.594 14.4803 25.4039C14.5171 25.2814 14.5212 25.2011 14.4925 25.1209C14.4557 25.0195 14.427 25.0068 14.2754 25.0068C14.1771 25.0068 14.0706 25.0279 14.0378 25.0448Z" fill="#FE8E3C"/>
<path d="M8.11136 26.1894C7.90255 26.2781 7.82476 26.7555 7.99263 26.9456C8.03357 26.9921 8.22191 27.0597 8.45938 27.1146C8.67638 27.1696 8.91386 27.2287 8.97937 27.2498C9.04897 27.271 9.27007 27.3048 9.47888 27.3174L9.85556 27.3428L9.98248 27.2034C10.1422 27.0301 10.1504 26.802 10.0071 26.6246C9.92516 26.5232 9.84328 26.4894 9.56486 26.4302C9.38061 26.388 9.14314 26.3373 9.04078 26.3119C8.77874 26.2443 8.29151 26.1472 8.24238 26.1514C8.22191 26.1514 8.1605 26.1683 8.11136 26.1894Z" fill="#FE8E3C"/>
<path d="M13.0958 26.5568C12.4282 26.6117 12.1947 26.616 11.6828 26.5737C11.3429 26.5441 11.0316 26.5357 10.9947 26.5526C10.9046 26.5864 10.8022 26.785 10.8022 26.9159C10.8063 27.068 10.9497 27.3595 11.0562 27.4229C11.2528 27.537 13.8698 27.4736 14.2958 27.3468C14.476 27.2919 14.5579 26.7934 14.4145 26.6117C14.3122 26.4808 14.1074 26.4765 13.0958 26.5568Z" fill="#FE8E3C"/>
</g>
<path d="M11.4782 3.53133C11.1874 3.54823 10.999 3.5778 10.958 3.61582C10.9048 3.65807 10.8925 3.74679 10.8925 4.02561C10.8966 4.43963 10.9621 4.56215 11.2201 4.63396L11.3799 4.68044L11.384 5.74504C11.3881 6.33227 11.4003 6.85613 11.4167 6.91527C11.4413 7.01666 11.4618 7.02089 11.728 7.02089H12.0106L12.0392 6.8519C12.0556 6.75896 12.0761 6.33227 12.0843 5.90558C12.1007 5.24654 12.113 5.1198 12.1703 5.07755C12.2153 5.04375 12.5389 5.01418 13.1204 4.99728C13.8986 4.96771 14.0174 4.97194 14.1034 5.03108L14.2057 5.09867L14.2098 6.37874C14.218 8.6516 14.2672 10.8611 14.3081 10.9287C14.3286 10.9625 14.3532 11.0258 14.3573 11.0681C14.3655 11.1103 14.4064 11.2202 14.4556 11.3131C14.517 11.4441 14.5907 11.5075 14.7504 11.5877C15.0003 11.706 15.1518 11.7145 15.3607 11.6131C15.5736 11.5117 16.3395 10.8442 16.3067 10.7893C16.2944 10.7681 16.2985 10.7597 16.3231 10.7724C16.3559 10.7935 16.8187 10.4259 18.1743 9.28529C18.3831 9.10786 18.6616 8.87973 18.7886 8.78256C18.9155 8.68117 19.0712 8.54176 19.1367 8.47416C19.2637 8.33898 19.3701 8.31785 19.448 8.41502C19.4766 8.44882 19.5135 8.46571 19.534 8.45304C19.5544 8.44037 19.5667 8.44459 19.5626 8.46572C19.5421 8.52908 20.1483 9.24305 20.1933 9.21348C20.222 9.19658 20.2261 9.20503 20.2097 9.23037C20.181 9.27685 20.4472 9.61904 20.607 9.73733C20.6438 9.76691 20.6766 9.82605 20.6766 9.8683C20.6766 9.94012 17.605 13.0917 17.1954 13.4423C16.8883 13.7 16.8678 13.7423 16.8678 14.1141C16.8678 14.4436 16.8678 14.4478 17.0275 14.6083C17.1422 14.7266 17.2077 14.7647 17.261 14.7435C17.306 14.7266 17.3224 14.7309 17.3019 14.7647C17.2733 14.8154 17.3388 14.8407 17.5845 14.8787C17.6746 14.8914 17.777 14.9125 17.8098 14.921C17.8794 14.9421 18.4487 15.0519 18.7927 15.1111C18.9155 15.128 19.4602 15.2251 20.0008 15.3223C20.5414 15.4195 21.0861 15.4997 21.209 15.4997C21.3564 15.4997 21.4056 15.5082 21.3523 15.5293C21.2991 15.5504 21.4875 15.5969 21.9011 15.6645C22.2902 15.7237 22.5564 15.787 22.5933 15.825C22.6424 15.88 22.6506 15.9898 22.626 16.5052C22.6138 16.8432 22.581 17.291 22.5564 17.5065C22.495 18.043 22.4622 18.0683 21.9134 18.0726C21.6882 18.0768 21.4834 18.0683 21.467 18.0557C21.4465 18.043 20.951 17.9627 20.3694 17.8782C19.7838 17.7937 19.0425 17.6881 18.7271 17.6459C17.7238 17.5022 17.605 17.5318 17.605 17.9416C17.605 18.1993 17.6173 18.2077 18.2029 18.2796C18.5633 18.326 19.7961 18.495 20.1851 18.5542C20.2629 18.5668 20.6479 18.626 21.0411 18.6809C21.4302 18.74 21.8274 18.8076 21.9216 18.833C22.0117 18.8583 22.11 18.8795 22.1387 18.8795C22.1673 18.8837 22.1837 18.9048 22.1796 18.9302C22.1755 18.9555 22.2083 18.9724 22.2534 18.9682C22.2984 18.964 22.3148 18.9682 22.2861 18.9809C22.2574 18.9935 22.2493 19.0315 22.2615 19.0696C22.2779 19.1118 22.2697 19.1287 22.2452 19.1118C22.2247 19.0991 22.1796 19.1372 22.151 19.2005C22.1223 19.2639 22.0772 19.3611 22.0486 19.4202C21.9953 19.5343 21.9257 19.8004 21.938 19.8511C21.9421 19.8722 21.9257 19.8849 21.9052 19.8849C21.8807 19.8849 21.8643 19.9018 21.8643 19.9229C21.8643 19.9398 21.7947 20.1088 21.7127 20.2905C21.6308 20.4722 21.5653 20.6496 21.5694 20.6792C21.5776 20.7087 21.553 20.7425 21.5162 20.7552C21.4834 20.7679 21.4547 20.7932 21.4547 20.8101C21.4547 20.8524 21.1148 21.4692 21.0452 21.5537C21.0165 21.5875 21.0042 21.617 21.0206 21.617C21.0329 21.617 21.0165 21.6508 20.9797 21.6888C20.9469 21.7311 20.7585 21.9846 20.566 22.2507C20.1933 22.7704 19.5421 23.5435 19.2063 23.8688C19.0302 24.0377 18.9852 24.0631 18.9196 24.0251C18.7804 23.949 18.6698 23.7462 18.4446 23.159C18.3831 22.9943 18.3094 22.8337 18.2807 22.7999C18.2562 22.7661 18.207 22.669 18.1784 22.5887C18.1497 22.5084 18.0555 22.2972 17.9695 22.124C17.7033 21.579 17.1954 20.4722 17.0234 20.075C16.8801 19.7371 16.7941 19.5554 16.6507 19.2724C16.6262 19.2259 16.5565 19.0865 16.491 18.9597C16.3763 18.7358 16.3763 18.7316 16.3763 17.9205V17.1051L15.8644 16.6531C15.5818 16.4038 15.332 16.163 15.3074 16.1165C15.2788 16.0616 15.2747 15.9391 15.291 15.7955C15.3484 15.3139 15.1559 14.3887 14.8733 13.8099C14.562 13.1635 13.9436 12.5594 13.2965 12.2637C12.9976 12.1285 12.4324 11.9848 12.1908 11.9848C12.031 11.9848 11.9696 11.9637 11.8877 11.8792C11.8099 11.799 11.7935 11.7567 11.8222 11.7187C11.9164 11.6046 11.9573 10.9202 11.945 9.72044C11.9368 8.82904 11.9205 8.47416 11.8795 8.40657C11.8508 8.35165 11.814 8.31363 11.7976 8.31785C11.7812 8.32208 11.7362 8.3094 11.6952 8.28828C11.6584 8.27138 11.5601 8.27138 11.4782 8.28406C11.2324 8.33475 11.216 8.42347 11.216 9.79648C11.216 10.4555 11.1997 11.1019 11.1751 11.2371C11.1546 11.368 11.0768 11.6046 11.0031 11.7652L10.8679 12.0482L10.4092 12.2806C10.1594 12.4073 9.92187 12.5425 9.87682 12.5805C9.83587 12.6185 9.74577 12.6819 9.67205 12.7199C9.2625 12.9312 8.70552 13.7719 8.50074 14.4901C8.42703 14.7435 8.41474 14.9083 8.41064 15.4533C8.41064 15.9053 8.42703 16.1292 8.45979 16.1715C8.48846 16.2053 8.56218 16.3954 8.6277 16.5939C8.68914 16.7925 8.8161 17.084 8.9062 17.2403C8.9922 17.3966 9.11507 17.6163 9.1724 17.7219C9.36899 18.0852 10.0447 18.6049 10.6099 18.8288C11.0195 18.9935 11.6092 19.0991 11.9532 19.0696L12.2194 19.0484L12.3464 19.2048C12.4897 19.378 12.6495 19.6906 12.7314 19.9441C12.76 20.037 12.9116 20.3877 13.0672 20.7256C13.53 21.7226 13.6897 22.086 13.9477 22.7154C14.046 22.9605 14.1566 23.2308 14.1935 23.3196C14.2958 23.5646 14.4187 23.6449 14.6972 23.6449C14.9265 23.6449 14.9347 23.6406 15.0003 23.5012C15.0371 23.421 15.0658 23.3069 15.0658 23.2435C15.0658 23.1126 14.7832 22.4197 14.73 22.4197C14.7095 22.4197 14.7013 22.4028 14.7136 22.3817C14.7259 22.3606 14.6808 22.2381 14.6153 22.1071C14.5457 21.9803 14.4924 21.8536 14.4924 21.8283C14.4924 21.8029 14.4187 21.6213 14.3286 21.4227C14.2385 21.2241 14.1648 21.0467 14.1648 21.0298C14.1648 21.0129 14.1443 20.9791 14.1156 20.9495C14.0911 20.9242 14.0624 20.8735 14.0583 20.8397C14.0542 20.8059 13.9313 20.4975 13.7839 20.1511C13.6365 19.8089 13.5095 19.492 13.4931 19.4498C13.4808 19.4118 13.4522 19.378 13.4317 19.378C13.4112 19.378 13.3948 19.3442 13.3948 19.3019C13.403 19.2343 13.3211 19.0315 12.932 18.1486C12.846 17.95 12.7723 17.7642 12.7723 17.7388C12.7723 17.6501 12.6945 17.6459 12.3833 17.7304C11.8631 17.8655 11.5068 17.8317 10.9908 17.5825C10.4133 17.3079 10.0161 16.8685 9.77853 16.2391C9.31165 14.997 10.0857 13.5987 11.4413 13.2269C11.9164 13.0959 12.5676 13.2227 13.0426 13.5395C13.5546 13.8817 13.9846 14.5239 14.087 15.09C14.1402 15.373 14.1115 15.9011 14.0378 16.1208C13.9928 16.256 13.9969 16.2729 14.0993 16.3658C14.1607 16.4207 14.2303 16.4503 14.2549 16.4376C14.2795 16.4207 14.2877 16.4292 14.2713 16.4545C14.2426 16.5052 14.4924 16.7164 14.603 16.7333C14.644 16.7418 14.6767 16.7671 14.6767 16.7925C14.6767 16.8178 14.7586 16.9023 14.861 16.9784C14.9593 17.0544 15.0289 17.0967 15.0126 17.0671C14.9962 17.0417 15.0986 17.1347 15.2378 17.2699C15.4753 17.5065 15.4917 17.536 15.5204 17.7642C15.5368 17.8951 15.5532 18.1613 15.5532 18.3514C15.5572 18.6978 15.5613 18.7105 15.889 19.4287C16.0733 19.83 16.2371 20.1807 16.2576 20.2018C16.274 20.2271 16.3231 20.3412 16.3682 20.4553C16.4132 20.5735 16.5975 20.9791 16.7777 21.3635C16.9579 21.748 17.2036 22.2803 17.3183 22.5465C17.4371 22.8126 17.5804 23.1337 17.6337 23.2562C17.7156 23.4336 17.7238 23.4928 17.6869 23.5392C17.6255 23.6195 16.1716 24.3757 15.7825 24.532L15.4958 24.6503V24.8109C15.4999 24.9038 15.5654 25.1911 15.6473 25.453L15.7948 25.9304L15.7088 26.036C15.6555 26.0951 15.4999 26.1796 15.332 26.2388C14.947 26.3698 14.8405 26.581 15.0289 26.8302C15.1313 26.9612 15.2829 26.9739 15.5777 26.8598C15.8439 26.7584 16.7613 26.3613 16.8555 26.3064C16.8965 26.2853 17.0767 26.2008 17.2569 26.1247C17.6377 25.9642 18.4282 25.4572 18.9442 25.0432C19.3865 24.6926 19.923 24.1856 19.9066 24.1391C19.9025 24.118 19.9107 24.1138 19.9312 24.1265C19.9804 24.156 20.2343 23.8814 20.1974 23.835C20.1769 23.8181 20.1851 23.8138 20.2138 23.8307C20.2425 23.8434 20.2998 23.8012 20.3531 23.7209C20.4063 23.6449 20.4595 23.573 20.4718 23.5604C20.4882 23.5477 20.5701 23.4547 20.6602 23.3491C20.7462 23.2435 20.7749 23.197 20.7175 23.2435C20.6602 23.29 20.5988 23.3449 20.5824 23.3703C20.5373 23.4252 20.5578 23.3703 20.6356 23.2097C20.6684 23.1337 20.7175 23.0957 20.7585 23.1083C20.7913 23.1168 20.8486 23.0957 20.8773 23.0619C21.0083 22.9182 21.2008 22.6352 21.1803 22.6183C21.1394 22.5718 21.2172 22.4155 21.2745 22.4366C21.3032 22.4493 21.3401 22.4366 21.3564 22.4113C21.3728 22.3817 21.3687 22.3775 21.3401 22.3944C21.3114 22.4113 21.2909 22.4028 21.2909 22.3817C21.2909 22.3563 21.3196 22.3352 21.3523 22.3352C21.4097 22.3352 21.5203 22.1747 21.5039 22.1113C21.4998 22.0944 21.5121 22.0817 21.5325 22.0817C21.5776 22.0817 21.7537 21.7902 21.7537 21.7142C21.7537 21.6846 21.766 21.6719 21.7824 21.6804C21.8151 21.7015 21.9257 21.4903 21.9134 21.4354C21.9093 21.4185 21.9216 21.4058 21.9462 21.4058C21.9912 21.4058 22.2206 20.9115 22.2247 20.7974C22.2247 20.7763 22.2452 20.7468 22.2656 20.7341C22.3312 20.6918 22.5728 20.1257 22.5769 20.0032C22.581 19.9356 22.5933 19.8849 22.6138 19.8849C22.6301 19.8849 22.6629 19.8385 22.6834 19.7751C22.8062 19.4498 22.9905 19.116 23.0684 19.0822C23.1175 19.0653 23.9202 19.0315 24.854 19.0062C26.7174 18.9555 26.6847 18.9597 26.8116 18.6851C26.9222 18.4528 26.7625 18.1064 26.5208 18.0599C26.4717 18.0514 25.7222 18.0599 24.8622 18.081C24.0021 18.1021 23.2854 18.1106 23.2731 18.0979C23.2608 18.0895 23.2813 17.9078 23.3223 17.705C23.3591 17.498 23.4206 17.0544 23.4574 16.7164L23.5229 16.1039L24.0963 16.0954C24.4117 16.087 26.0621 16.049 27.7659 16.0025C30.69 15.9264 30.8743 15.918 31.0504 15.8377C31.2061 15.7659 31.247 15.7237 31.2839 15.5842C31.3248 15.4448 31.3248 15.3984 31.2634 15.2843C31.1201 14.9886 31.1282 14.9928 27.3317 15.0857C26.0499 15.1153 24.6656 15.1407 24.2601 15.1364L23.527 15.1322L23.4738 14.5619C23.3591 13.2269 23.3141 13.0833 23.0397 13.0833C22.8103 13.0833 22.7448 13.1677 22.7448 13.4508C22.7489 13.6705 22.8226 14.6421 22.8472 14.752C22.8677 14.8492 22.8431 14.9463 22.7735 15.0181C22.7039 15.09 22.6711 15.0942 22.3435 15.0435C22.1469 15.0139 21.7537 14.9421 21.467 14.8829C21.1762 14.8238 20.779 14.7478 20.5742 14.714C20.181 14.6464 20.009 14.6126 19.3251 14.4816C18.3995 14.3042 18.1005 14.2324 17.9777 14.1563C17.9081 14.1141 17.8507 14.0591 17.8507 14.038C17.8507 14.0169 18.7312 13.0875 19.8084 11.9764L21.7619 9.95701H24.3134C27.1147 9.95701 27.0369 9.96546 27.1679 9.70353C27.2457 9.54722 27.2457 9.43738 27.1679 9.28107C27.0369 9.01914 27.1229 9.02759 24.2315 9.02759H21.594L21.5162 8.8924C21.3769 8.64737 20.7298 7.78555 20.394 7.4011C19.3947 6.24778 18.8582 5.87601 18.5879 6.15484C18.4896 6.25623 18.4773 6.5266 18.5633 6.69559C18.6166 6.80121 18.8377 6.99976 18.9033 6.99976C18.9483 6.99976 19.1613 7.21945 19.1613 7.27014C19.1613 7.29126 19.0507 7.42645 18.9155 7.57431C18.7804 7.71795 18.6698 7.82779 18.6698 7.81089C18.6698 7.79822 18.6084 7.84469 18.5388 7.91229C18.465 7.98411 18.1005 8.28828 17.7279 8.58401C17.3552 8.88395 16.7695 9.38669 16.4214 9.69931C15.0781 10.916 15.1027 10.8991 15.0248 10.8231C14.9265 10.7301 14.8938 9.8176 14.8979 7.10538C14.902 4.93814 14.8651 3.82706 14.7832 3.66652C14.7013 3.51021 14.5293 3.49331 13.2064 3.50176C12.5061 3.50598 11.728 3.51866 11.4782 3.53133ZM20.0213 8.97267C19.9763 9.04449 19.9763 9.04449 19.9967 8.97267C20.009 8.93043 20.0213 8.87128 20.0254 8.84593C20.0254 8.80791 20.0336 8.80791 20.0459 8.84593C20.0582 8.87551 20.0459 8.93043 20.0213 8.97267ZM16.1511 10.1682C16.1634 10.1894 16.1552 10.2105 16.1347 10.2105C16.1101 10.2105 16.0897 10.1894 16.0897 10.1682C16.0897 10.1429 16.0979 10.126 16.106 10.126C16.1183 10.126 16.1388 10.1429 16.1511 10.1682ZM15.9668 10.3795C15.9668 10.4006 15.9463 10.4217 15.9217 10.4217C15.9013 10.4217 15.8931 10.4006 15.9054 10.3795C15.9177 10.3541 15.9381 10.3372 15.9504 10.3372C15.9586 10.3372 15.9668 10.3541 15.9668 10.3795ZM22.5359 19.9483C22.5482 19.9821 22.54 20.0117 22.5196 20.0117C22.495 20.0117 22.4786 19.9821 22.4786 19.9483C22.4786 19.9145 22.4868 19.8849 22.495 19.8849C22.5032 19.8849 22.5196 19.9145 22.5359 19.9483ZM22.2738 20.4764C22.2738 20.5228 22.2574 20.5609 22.2329 20.5609C22.2124 20.5609 22.1919 20.5228 22.1919 20.4764C22.1919 20.4299 22.2124 20.3919 22.2329 20.3919C22.2574 20.3919 22.2738 20.4299 22.2738 20.4764ZM13.7757 20.5102C13.7757 20.5862 13.6938 20.5735 13.6815 20.4933C13.6692 20.451 13.6856 20.4299 13.7225 20.4426C13.7511 20.4553 13.7757 20.4848 13.7757 20.5102ZM21.9585 21.296C21.9708 21.3213 21.9462 21.3509 21.9052 21.3509C21.8643 21.3551 21.8192 21.334 21.811 21.3044C21.7988 21.2791 21.8233 21.2495 21.8643 21.2495C21.9052 21.2453 21.9503 21.2664 21.9585 21.296ZM13.8986 21.955C13.9109 21.9761 13.9027 21.9972 13.8822 21.9972C13.8576 21.9972 13.8371 21.9761 13.8371 21.955C13.8371 21.9297 13.8453 21.9128 13.8535 21.9128C13.8658 21.9128 13.8863 21.9297 13.8986 21.955ZM20.4227 23.5097C20.435 23.5477 20.4145 23.5646 20.3653 23.5519C20.3285 23.5477 20.2875 23.5139 20.2752 23.4843C20.2629 23.4463 20.2834 23.4294 20.3326 23.4421C20.3694 23.4463 20.4104 23.4801 20.4227 23.5097Z" fill="#DC366E"/>
<path d="M16.2944 4.66354C16.2125 4.70578 16.1142 4.80717 16.0692 4.89589C15.9955 5.03953 15.9914 5.06488 16.0487 5.23386C16.1675 5.58451 15.8726 5.56339 20.3612 5.56761C24.0021 5.57183 24.3339 5.56761 24.428 5.50002C24.5632 5.40707 24.6533 5.18317 24.6246 5.01418C24.596 4.86632 24.3994 4.68044 24.2683 4.67199C24.2192 4.66776 22.5032 4.66354 20.4513 4.65931C18.4036 4.65509 16.6589 4.63819 16.5811 4.62129C16.4787 4.59594 16.3968 4.60862 16.2944 4.66354Z" fill="#DC366E"/>
<path d="M23.3591 6.68714C23.1748 6.71671 23.052 6.79276 22.9864 6.92372C22.8759 7.1434 22.9373 7.40533 23.1298 7.53629C23.2731 7.63346 23.8096 7.64613 26.3898 7.60389C28.286 7.57009 28.4457 7.56164 28.5522 7.48982C28.757 7.34619 28.7693 6.97864 28.5686 6.82233C28.5194 6.78008 28.4048 6.74206 28.3147 6.72939C28.1058 6.69982 23.5229 6.66602 23.3591 6.68714Z" fill="#DC366E"/>
<path d="M22.282 11.0216C22.1592 11.085 22.1264 11.2413 22.1878 11.4525C22.2165 11.5497 22.2656 11.7398 22.3025 11.8792C22.4295 12.3989 22.5032 12.5932 22.6097 12.6735C22.7039 12.7453 22.7407 12.7495 23.0028 12.7073C23.183 12.6777 24.0144 12.6608 25.1775 12.6608H27.0655L27.1966 12.5383C27.3113 12.4327 27.3317 12.3862 27.3317 12.2172C27.3317 12.0482 27.3113 12.0017 27.1966 11.8961L27.0655 11.7736H25.0669C23.9694 11.7736 23.052 11.7567 23.0233 11.7398C22.9946 11.7229 22.925 11.5751 22.8677 11.4145C22.8062 11.2498 22.7284 11.085 22.6957 11.0427C22.6219 10.9625 22.4254 10.9498 22.282 11.0216Z" fill="#DC366E"/>
<path d="M28.9413 12.0144C28.6792 12.1834 28.6832 12.5932 28.9454 12.7749C29.0396 12.8424 29.1829 12.8509 30.2191 12.8636C30.862 12.872 31.4641 12.8678 31.5583 12.8509C31.8982 12.8002 32.0825 12.5129 31.9637 12.2214C31.849 11.9426 31.8613 11.9426 30.3829 11.9426C29.2157 11.9426 29.0396 11.9553 28.9413 12.0144Z" fill="#DC366E"/>
<path d="M11.7075 15.1407C11.5969 15.1829 11.5437 15.2927 11.5437 15.4997C11.5437 15.7321 11.6051 15.787 11.8672 15.787C12.0884 15.787 12.199 15.6772 12.199 15.4533C12.199 15.1956 11.9614 15.0477 11.7075 15.1407Z" fill="#DC366E"/>
<path d="M28.1836 18.0641C27.8314 18.1106 27.6594 18.3598 27.7618 18.6767C27.8478 18.9555 27.8928 18.964 29.0232 18.9471C30.1249 18.9344 30.1863 18.9175 30.2928 18.6767C30.3829 18.4823 30.3542 18.326 30.2027 18.1697L30.0634 18.0261L29.232 18.0303C28.7733 18.0345 28.3024 18.0514 28.1836 18.0641Z" fill="#DC366E"/>
<defs>
<clipPath id="clip0_557_56">
<rect width="15.0045" height="32" fill="white"/>
</clipPath>
</defs>
</svg>
