<svg width="32" height="32" viewBox="0 0 32 32" fill="none" xmlns="http://www.w3.org/2000/svg">
<rect width="32.0002" height="32" rx="8" fill="#DC366E"/>
<g clip-path="url(#clip0_557_56)">
<path d="M10.1621 5.28644C9.93638 5.3234 9.63895 5.37885 9.49919 5.41212C9.26985 5.46387 9.15876 5.49714 8.74665 5.61913C8.49222 5.69676 7.6035 6.07011 7.50674 6.14035C7.45299 6.17731 7.3419 6.24385 7.25589 6.28451C7.16989 6.32517 7.00863 6.41759 6.90112 6.48782C6.79362 6.55806 6.65386 6.64308 6.58936 6.68004C5.82248 7.13102 4.13463 8.82035 3.83003 9.44137C3.77986 9.54488 3.63652 9.80364 3.51468 10.0217C3.31758 10.3618 3.18141 10.6243 2.91264 11.1825C2.79439 11.4264 2.70838 11.6482 2.70838 11.7037C2.70838 11.7332 2.67613 11.8257 2.64029 11.9033C2.60087 11.9846 2.5507 12.1399 2.52562 12.2434C2.50053 12.3506 2.46828 12.4541 2.45395 12.4763C2.4432 12.4947 2.41095 12.6056 2.38586 12.7165C2.36078 12.8274 2.31061 13.0123 2.27477 13.1231C2.11351 13.6222 1.9845 14.8679 1.99526 15.8216C1.99884 16.4464 2.10635 17.3298 2.22102 17.7254C2.31061 18.0322 2.41453 18.4499 2.47545 18.7197C2.50412 18.8602 2.5507 19.0266 2.57937 19.0894C2.60446 19.1522 2.66179 19.2964 2.70838 19.4073C2.96998 20.0468 3.51109 21.1114 3.75477 21.4589C4.44998 22.4496 4.98751 23.0817 5.62897 23.6547C6.1235 24.0945 6.34568 24.2609 7.2774 24.8819C7.47091 25.0113 7.63217 25.0335 7.78984 24.9485C7.8866 24.893 8.01202 24.6342 8.01202 24.4864C8.01202 24.3903 7.78268 24.1019 7.70742 24.1019C7.68234 24.1019 7.5605 24.0317 7.43507 23.9504C7.30965 23.8654 7.14122 23.7508 7.06238 23.699C6.47468 23.3035 5.17027 21.9838 4.88717 21.4922C4.85134 21.433 4.75817 21.2926 4.67574 21.1817C4.03787 20.2982 3.53259 19.2742 3.26025 18.3168C3.23158 18.2133 3.17424 18.0248 3.13841 17.8917C2.90189 17.0637 2.78363 15.8734 2.85172 14.9899C2.88756 14.4835 2.97356 13.8809 3.0309 13.7331C3.04523 13.6924 3.08107 13.5335 3.11332 13.3819C3.2495 12.6907 3.48243 12.0659 4.03787 10.8867C4.27797 10.3803 4.51449 9.99956 4.89076 9.519C5.00543 9.37484 5.1201 9.22328 5.14877 9.17892C5.33512 8.89798 6.33134 7.94427 6.78645 7.60788C7.34907 7.19756 8.22703 6.7281 8.78248 6.54327C8.97958 6.47673 9.22326 6.39171 9.32001 6.35475C9.48127 6.2956 9.76796 6.22537 10.3843 6.09968C10.499 6.0775 10.6065 6.06641 10.628 6.0812C10.6459 6.09229 10.7104 6.0775 10.7678 6.04423C10.8287 6.01466 10.9183 5.98879 10.9684 5.98879C11.0437 5.98879 11.076 5.95921 11.1333 5.82244C11.2157 5.62652 11.1978 5.42691 11.0831 5.29383C10.9899 5.19033 10.7606 5.19033 10.1621 5.28644Z" fill="white"/>
<path d="M10.5134 7.56769C10.3879 7.70077 10.3807 7.893 10.4919 8.04086C10.56 8.13328 10.5851 8.14067 10.7428 8.12589C10.9615 8.10371 11.026 8.04086 11.0475 7.83015C11.0726 7.61205 10.9866 7.50485 10.7715 7.47897C10.6281 7.46418 10.5994 7.47527 10.5134 7.56769Z" fill="white"/>
<path d="M9.14073 8.04828C9.08339 8.08895 8.97589 8.1407 8.9078 8.17027C8.69279 8.25529 8.24843 8.47339 8.15525 8.53993C8.10508 8.57689 7.94741 8.68409 7.80407 8.7839C7.65714 8.88371 7.48513 9.002 7.41704 9.05005C7.25937 9.15725 6.45307 9.95201 6.24881 10.1997C5.71486 10.8466 5.19525 11.7522 4.87631 12.5877C4.69355 13.0645 4.45704 13.9702 4.39612 14.4175C4.30295 15.1383 4.31728 16.2066 4.43195 16.7463C4.44987 16.8387 4.48212 16.994 4.50363 17.0975C4.79031 18.5576 5.4676 19.8699 6.50683 20.9752C7.02644 21.5296 7.86499 22.1876 8.45986 22.5092C8.57811 22.5721 8.69995 22.6423 8.72862 22.6608C8.83254 22.731 9.25182 22.9159 9.50983 23.0083C10.248 23.2707 11.2192 23.182 11.8857 22.7939C12.3838 22.5018 12.5988 22.2837 12.8712 21.7884C13.122 21.3226 13.208 21.0713 13.2439 20.6499C13.2797 20.2802 13.2439 19.7368 13.1794 19.6037C13.1615 19.5668 13.1364 19.4854 13.1256 19.4226C13.1149 19.3635 13.0396 19.1675 12.9572 18.9938L12.8103 18.6796L12.4268 18.6574C12.1258 18.6426 11.9789 18.6168 11.7388 18.528C11.1726 18.321 10.5992 17.9514 10.3305 17.6187C10.2445 17.5115 10.1764 17.456 10.1513 17.4745C9.98644 17.5817 9.70693 17.6261 9.58867 17.5595C9.517 17.5189 8.80746 16.6576 8.77521 16.5726C8.74296 16.4912 8.87196 16.3803 9.06547 16.3175C9.16581 16.2842 9.31274 16.2251 9.39158 16.1807L9.53492 16.0994L9.52058 15.6558C9.50983 15.2492 9.5385 14.9756 9.64601 14.5099C9.65676 14.4692 9.61376 14.5321 9.55642 14.6503C9.431 14.8943 9.11923 15.2825 8.98305 15.3601C8.3416 15.7223 8.01908 15.8 7.51022 15.7113C7.13036 15.6447 6.88668 15.5153 6.61433 15.2307C6.19506 14.7982 6.00513 14.3546 6.00513 13.826C6.00513 13.3972 6.19506 12.8649 6.46024 12.5433C6.66092 12.303 7.08736 12.0221 7.35971 11.9519C7.60339 11.889 8.21976 11.8853 8.40252 11.9445C8.91497 12.1108 9.31991 12.4657 9.56359 12.9573C9.72126 13.2789 9.76426 13.497 9.74993 13.863C9.74276 14.0441 9.74276 14.1957 9.74993 14.1957C9.7571 14.1957 9.83952 14.0441 9.93269 13.863C10.0653 13.5931 10.1477 13.4859 10.3591 13.2863L10.6243 13.046L10.5598 12.9277C10.524 12.8612 10.481 12.7577 10.4595 12.6986C10.395 12.5026 10.1585 12.1515 9.91477 11.889C9.41666 11.3567 8.83613 11.0721 8.11942 11.0166C7.48872 10.9649 7.10169 11.0425 6.52833 11.3382C6.19506 11.512 6.08755 11.5231 6.13414 11.3789C6.16639 11.2717 6.4244 10.9168 6.48891 10.8909C6.51758 10.8798 6.59283 10.7763 6.65733 10.6581C6.79351 10.4067 7.49588 9.67477 7.7969 9.47146C7.90441 9.39753 8.05133 9.29033 8.123 9.23488C8.28426 9.1092 8.64978 8.91698 9.17656 8.68779C9.59584 8.50296 9.66034 8.44012 9.66034 8.22202C9.66034 8.07416 9.60659 8.0261 9.40591 8.00023C9.28765 7.98544 9.21957 8.00023 9.14073 8.04828ZM5.32067 14.9313C5.36368 14.9904 5.39593 15.0459 5.39593 15.057C5.39593 15.1272 5.7507 15.5967 5.98721 15.8406C6.47099 16.336 7.0121 16.5763 7.73956 16.6243C8.08358 16.6465 8.1015 16.6539 8.23409 16.7759C8.4491 16.9792 8.94363 17.7555 8.94363 17.8959C8.94363 17.9107 8.79312 18.0475 8.60678 18.199C7.96533 18.7313 7.71806 19.2784 7.65714 20.2876C7.63564 20.6757 7.63922 20.8125 7.67864 20.9308C7.72881 21.0861 7.70014 21.1822 7.59981 21.1822C7.5353 21.1822 6.96193 20.5279 6.70034 20.1619C6.39932 19.7331 6.10547 19.2452 5.97288 18.9457C5.90837 18.8016 5.84029 18.6574 5.82237 18.6205C5.74711 18.4726 5.72561 18.4208 5.68261 18.2989C5.66111 18.2286 5.59302 18.0364 5.53569 17.8774C5.47835 17.7148 5.38159 17.3858 5.32426 17.1418C5.26334 16.8979 5.20958 16.6871 5.19883 16.6724C5.18808 16.6539 5.15583 16.4543 5.12716 16.2251C5.06266 15.7113 5.05549 14.9313 5.11641 14.8684C5.1845 14.7982 5.24183 14.8167 5.32067 14.9313ZM10.4236 18.1917C10.4666 18.2138 10.5347 18.2619 10.5741 18.2989C10.6171 18.3395 10.7318 18.3691 10.868 18.3839C11.4808 18.4356 12.1473 19.064 12.3301 19.759C12.4698 20.2913 12.3838 20.916 12.1187 21.282C12.0577 21.367 11.961 21.5075 11.9001 21.5925C11.7961 21.7404 11.5023 21.9695 11.2407 22.1026C10.8071 22.3244 10.1119 22.354 9.7141 22.1655C9.39516 22.0139 9.14431 21.7958 8.93288 21.4816C8.56019 20.9234 8.49569 20.6831 8.56736 20.0917C8.63187 19.5335 8.78596 19.2304 9.15865 18.9088C9.43816 18.6685 9.82877 18.443 10.0474 18.3913C10.1334 18.3728 10.162 18.3469 10.162 18.2841C10.162 18.236 10.1728 18.188 10.1871 18.1769C10.223 18.1362 10.3376 18.1473 10.4236 18.1917Z" fill="white"/>
<path d="M10.2337 19.5772C10.0186 19.6548 9.88952 19.7879 9.84292 19.9801C9.78556 20.2167 9.79273 20.3276 9.88952 20.5346C9.95405 20.6825 10.0042 20.7379 10.144 20.8119C10.2372 20.8599 10.3735 20.9043 10.4452 20.9043C10.6244 20.9043 10.8969 20.7306 11.008 20.5457C11.0904 20.4163 11.1012 20.3609 11.0868 20.1687C11.0689 19.884 10.9757 19.7362 10.732 19.6105C10.5312 19.5033 10.4559 19.4996 10.2337 19.5772Z" fill="white"/>
<path d="M7.63959 13.1789C7.47827 13.238 7.43525 13.275 7.33488 13.4672C7.24526 13.6298 7.23451 13.9145 7.30979 14.0956C7.43525 14.4098 7.91203 14.5947 8.14863 14.4246C8.2024 14.3877 8.2741 14.3433 8.30636 14.3322C8.37447 14.3063 8.52862 14.0143 8.56447 13.8406C8.60031 13.6705 8.38523 13.2713 8.20957 13.1862C8.05542 13.1123 7.82958 13.1086 7.63959 13.1789Z" fill="white"/>
<path d="M14.2835 23.9135C14.2548 23.932 14.0756 23.9652 13.8892 23.9874C13.7028 24.0133 13.5343 24.0466 13.5092 24.0688C13.4482 24.1205 13.4124 24.3497 13.4554 24.431C13.5092 24.5308 13.735 24.553 14.0935 24.4902C14.5954 24.4051 14.6169 24.3941 14.6706 24.2277C14.7029 24.1205 14.7065 24.0503 14.6814 23.98C14.6491 23.8913 14.624 23.8802 14.4914 23.8802C14.4054 23.8802 14.3122 23.8987 14.2835 23.9135Z" fill="white"/>
<path d="M9.09781 24.9156C8.9151 24.9932 8.84703 25.411 8.99391 25.5773C9.02974 25.618 9.19454 25.6771 9.40233 25.7252C9.5922 25.7732 9.79999 25.825 9.85731 25.8435C9.91822 25.862 10.1117 25.8915 10.2944 25.9026L10.624 25.9248L10.735 25.8028C10.8748 25.6513 10.8819 25.4516 10.7565 25.2964C10.6849 25.2077 10.6132 25.1781 10.3696 25.1263C10.2084 25.0894 10.0006 25.045 9.91105 25.0228C9.68177 24.9637 9.25544 24.8787 9.21245 24.8823C9.19454 24.8823 9.1408 24.8971 9.09781 24.9156Z" fill="white"/>
<path d="M13.459 25.237C12.8748 25.285 12.6706 25.2887 12.2226 25.2518C11.9252 25.2259 11.6528 25.2185 11.6206 25.2333C11.5417 25.2628 11.4521 25.4366 11.4521 25.5512C11.4557 25.6843 11.5812 25.9393 11.6743 25.9948C11.8463 26.0946 14.1363 26.0391 14.509 25.9282C14.6667 25.8802 14.7383 25.444 14.6129 25.285C14.5233 25.1704 14.3441 25.1667 13.459 25.237Z" fill="white"/>
</g>
<path d="M12.0439 5.08992C11.7895 5.1047 11.6247 5.13058 11.5888 5.16385C11.5422 5.20081 11.5315 5.27844 11.5315 5.52241C11.5351 5.88468 11.5924 5.99188 11.8182 6.05472L11.9579 6.09538L11.9615 7.02691C11.9651 7.54074 11.9758 7.99911 11.9902 8.05086C12.0117 8.13958 12.0296 8.14328 12.2625 8.14328H12.5098L12.5349 7.99541C12.5492 7.91409 12.5671 7.54074 12.5743 7.16738C12.5886 6.59072 12.5994 6.47982 12.6496 6.44286C12.689 6.41328 12.9721 6.38741 13.4809 6.37262C14.1618 6.34675 14.2657 6.35044 14.341 6.4022L14.4306 6.46134L14.4342 7.5814C14.4413 9.57015 14.4843 11.5035 14.5202 11.5626C14.5381 11.5922 14.5596 11.6476 14.5632 11.6846C14.5703 11.7215 14.6062 11.8177 14.6492 11.899C14.7029 12.0136 14.7674 12.069 14.9072 12.1393C15.1258 12.2428 15.2584 12.2502 15.4411 12.1614C15.6275 12.0727 16.2976 11.4887 16.2689 11.4406C16.2582 11.4221 16.2618 11.4147 16.2833 11.4258C16.3119 11.4443 16.7169 11.1227 17.903 10.1246C18.0858 9.96938 18.3295 9.76976 18.4406 9.68474C18.5516 9.59603 18.6878 9.47404 18.7452 9.41489C18.8562 9.2966 18.9494 9.27812 19.0175 9.36314C19.0426 9.39271 19.0748 9.4075 19.0928 9.39641C19.1107 9.38532 19.1214 9.38902 19.1178 9.4075C19.0999 9.46295 19.6303 10.0877 19.6697 10.0618C19.6948 10.047 19.6984 10.0544 19.684 10.0766C19.659 10.1172 19.8919 10.4167 20.0316 10.5202C20.0639 10.546 20.0926 10.5978 20.0926 10.6348C20.0926 10.6976 17.4049 13.4552 17.0466 13.7621C16.7778 13.9875 16.7599 14.0245 16.7599 14.3498C16.7599 14.6381 16.7599 14.6418 16.8996 14.7823C17 14.8858 17.0573 14.9191 17.1039 14.9006C17.1433 14.8858 17.1576 14.8895 17.1397 14.9191C17.1146 14.9634 17.172 14.9856 17.387 15.0189C17.4658 15.03 17.5554 15.0485 17.5841 15.0558C17.645 15.0743 18.1431 15.1704 18.4441 15.2222C18.5516 15.237 19.0283 15.322 19.5013 15.407C19.9743 15.492 20.4509 15.5623 20.5584 15.5623C20.6874 15.5623 20.7304 15.5697 20.6839 15.5882C20.6373 15.6066 20.8021 15.6473 21.164 15.7064C21.5045 15.7582 21.7374 15.8136 21.7697 15.8469C21.8127 15.895 21.8198 15.9911 21.7983 16.4421C21.7876 16.7378 21.7589 17.1296 21.7374 17.3181C21.6837 17.7876 21.655 17.8098 21.1748 17.8135C20.9777 17.8172 20.7985 17.8098 20.7842 17.7987C20.7663 17.7876 20.3327 17.7174 19.8238 17.6434C19.3114 17.5695 18.6627 17.4771 18.3868 17.4401C17.5088 17.3144 17.4049 17.3403 17.4049 17.6989C17.4049 17.9244 17.4157 17.9318 17.9281 17.9946C18.2435 18.0353 19.3221 18.1831 19.6625 18.2349C19.7306 18.246 20.0675 18.2977 20.4115 18.3458C20.7519 18.3975 21.0995 18.4567 21.182 18.4789C21.2608 18.501 21.3468 18.5195 21.3719 18.5195C21.397 18.5232 21.4113 18.5417 21.4077 18.5639C21.4041 18.5861 21.4328 18.6009 21.4722 18.5972C21.5116 18.5935 21.526 18.5972 21.5009 18.6082C21.4758 18.6193 21.4686 18.6526 21.4794 18.6859C21.4937 18.7228 21.4866 18.7376 21.4651 18.7228C21.4471 18.7117 21.4077 18.745 21.3826 18.8005C21.3576 18.8559 21.3181 18.9409 21.2931 18.9927C21.2465 19.0925 21.1855 19.3254 21.1963 19.3697C21.1999 19.3882 21.1855 19.3993 21.1676 19.3993C21.1461 19.3993 21.1318 19.4141 21.1318 19.4326C21.1318 19.4474 21.0709 19.5952 20.9992 19.7542C20.9275 19.9131 20.8702 20.0684 20.8738 20.0943C20.8809 20.1201 20.8594 20.1497 20.8272 20.1608C20.7985 20.1719 20.7734 20.1941 20.7734 20.2089C20.7734 20.2458 20.476 20.7855 20.4151 20.8594C20.39 20.889 20.3793 20.9149 20.3936 20.9149C20.4043 20.9149 20.39 20.9445 20.3578 20.9777C20.3291 21.0147 20.1642 21.2365 19.9958 21.4694C19.6697 21.9241 19.0999 22.6005 18.8061 22.8852C18.652 23.033 18.6126 23.0552 18.5552 23.0219C18.4334 22.9554 18.3366 22.778 18.1395 22.2641C18.0858 22.12 18.0213 21.9795 17.9962 21.9499C17.9747 21.9204 17.9317 21.8353 17.9066 21.7651C17.8815 21.6949 17.7991 21.51 17.7238 21.3585C17.4909 20.8816 17.0466 19.9131 16.896 19.5657C16.7706 19.2699 16.6954 19.111 16.5699 18.8633C16.5484 18.8226 16.4875 18.7007 16.4302 18.5898C16.3299 18.3938 16.3299 18.3901 16.3299 17.6804V16.967L15.8819 16.5714C15.6346 16.3533 15.416 16.1426 15.3945 16.102C15.3695 16.0539 15.3659 15.9467 15.3802 15.821C15.4304 15.3996 15.262 14.5901 15.0147 14.0837C14.7423 13.5181 14.2012 12.9895 13.635 12.7307C13.3734 12.6124 12.8789 12.4867 12.6675 12.4867C12.5277 12.4867 12.474 12.4683 12.4023 12.3943C12.3342 12.3241 12.3199 12.2871 12.345 12.2539C12.4274 12.154 12.4632 11.5552 12.4525 10.5054C12.4453 9.72541 12.431 9.41489 12.3951 9.35575C12.37 9.30769 12.3378 9.27442 12.3235 9.27812C12.3091 9.28182 12.2697 9.27073 12.2339 9.25224C12.2016 9.23746 12.1156 9.23746 12.0439 9.24855C11.8289 9.29291 11.8146 9.37053 11.8146 10.5719C11.8146 11.1486 11.8003 11.7142 11.7788 11.8324C11.7608 11.947 11.6927 12.154 11.6282 12.2945L11.51 12.5422L11.1086 12.7455C10.89 12.8564 10.6822 12.9747 10.6428 13.008C10.6069 13.0412 10.5281 13.0967 10.4636 13.1299C10.1052 13.3148 9.61788 14.0504 9.4387 14.6788C9.3742 14.9006 9.36345 15.0448 9.35986 15.5216C9.35986 15.9171 9.3742 16.1131 9.40287 16.15C9.42795 16.1796 9.49245 16.3459 9.54979 16.5197C9.60354 16.6934 9.71463 16.9485 9.79347 17.0853C9.86873 17.222 9.97623 17.4143 10.0264 17.5067C10.1984 17.8246 10.7897 18.2793 11.2842 18.4752C11.6426 18.6193 12.1586 18.7117 12.4596 18.6859L12.6926 18.6674L12.8036 18.8042C12.9291 18.9557 13.0688 19.2293 13.1405 19.4511C13.1656 19.5324 13.2982 19.8392 13.4343 20.1349C13.8393 21.0073 13.979 21.3252 14.2048 21.876C14.2908 22.0904 14.3876 22.327 14.4198 22.4046C14.5094 22.619 14.6169 22.6892 14.8606 22.6892C15.0613 22.6892 15.0684 22.6856 15.1258 22.5636C15.158 22.4933 15.1831 22.3935 15.1831 22.3381C15.1831 22.2235 14.9359 21.6172 14.8893 21.6172C14.8713 21.6172 14.8642 21.6025 14.8749 21.584C14.8857 21.5655 14.8463 21.4583 14.7889 21.3437C14.728 21.2328 14.6814 21.1219 14.6814 21.0997C14.6814 21.0775 14.6169 20.9186 14.5381 20.7449C14.4592 20.5711 14.3947 20.4159 14.3947 20.4011C14.3947 20.3863 14.3768 20.3567 14.3517 20.3308C14.3302 20.3087 14.3051 20.2643 14.3016 20.2347C14.298 20.2052 14.1905 19.9353 14.0615 19.6322C13.9325 19.3328 13.8214 19.0555 13.807 19.0186C13.7963 18.9853 13.7712 18.9557 13.7533 18.9557C13.7354 18.9557 13.721 18.9261 13.721 18.8892C13.7282 18.83 13.6565 18.6526 13.3161 17.88C13.2408 17.7063 13.1763 17.5436 13.1763 17.5215C13.1763 17.4438 13.1082 17.4401 12.8359 17.5141C12.3808 17.6324 12.069 17.6028 11.6175 17.3847C11.1122 17.1444 10.7646 16.76 10.5568 16.2092C10.1482 15.1224 10.8255 13.8988 12.0117 13.5735C12.4274 13.4589 12.9972 13.5698 13.4128 13.8471C13.8608 14.1465 14.2371 14.7084 14.3267 15.2037C14.3732 15.4514 14.3482 15.9135 14.2836 16.1057C14.2442 16.224 14.2478 16.2387 14.3374 16.3201C14.3912 16.3681 14.4521 16.394 14.4736 16.3829C14.4951 16.3681 14.5022 16.3755 14.4879 16.3977C14.4628 16.4421 14.6814 16.6269 14.7782 16.6417C14.814 16.6491 14.8427 16.6712 14.8427 16.6934C14.8427 16.7156 14.9144 16.7895 15.0039 16.8561C15.0899 16.9226 15.1509 16.9596 15.1365 16.9337C15.1222 16.9115 15.2118 16.9928 15.3336 17.1111C15.5415 17.3181 15.5558 17.344 15.5809 17.5436C15.5952 17.6582 15.6096 17.8911 15.6096 18.0575C15.6131 18.3606 15.6167 18.3717 15.9034 19.0001C16.0647 19.3513 16.208 19.6581 16.2259 19.6766C16.2403 19.6987 16.2833 19.7985 16.3227 19.8983C16.3621 20.0018 16.5234 20.3567 16.681 20.6931C16.8387 21.0295 17.0537 21.4953 17.1541 21.7281C17.258 21.961 17.3834 22.242 17.43 22.3492C17.5017 22.5044 17.5088 22.5562 17.4766 22.5968C17.4228 22.6671 16.1507 23.3288 15.8102 23.4655L15.5594 23.569V23.7095C15.563 23.7908 15.6203 24.0422 15.692 24.2714L15.821 24.6891L15.7457 24.7815C15.6991 24.8333 15.563 24.9072 15.416 24.9589C15.0792 25.0735 14.986 25.2584 15.1509 25.4765C15.2405 25.5911 15.373 25.6021 15.6311 25.5023C15.864 25.4136 16.6667 25.0661 16.7491 25.0181C16.785 24.9996 16.9426 24.9257 17.1003 24.8591C17.4336 24.7187 18.1252 24.2751 18.5767 23.9128C18.9638 23.606 19.4332 23.1624 19.4189 23.1217C19.4153 23.1033 19.4224 23.0996 19.4404 23.1107C19.4834 23.1365 19.7055 22.8963 19.6733 22.8556C19.6554 22.8408 19.6625 22.8371 19.6876 22.8519C19.7127 22.863 19.7629 22.826 19.8095 22.7558C19.8561 22.6892 19.9026 22.6264 19.9134 22.6153C19.9277 22.6042 19.9994 22.5229 20.0782 22.4305C20.1535 22.3381 20.1786 22.2974 20.1284 22.3381C20.0782 22.3787 20.0245 22.4268 20.0101 22.449C19.9707 22.497 19.9886 22.449 20.0567 22.3085C20.0854 22.242 20.1284 22.2087 20.1642 22.2198C20.1929 22.2272 20.2431 22.2087 20.2682 22.1791C20.3828 22.0534 20.5513 21.8058 20.5333 21.791C20.4975 21.7503 20.5656 21.6135 20.6158 21.632C20.6409 21.6431 20.6731 21.632 20.6874 21.6099C20.7018 21.584 20.6982 21.5803 20.6731 21.5951C20.648 21.6099 20.6301 21.6025 20.6301 21.584C20.6301 21.5618 20.6552 21.5433 20.6839 21.5433C20.734 21.5433 20.8308 21.4028 20.8164 21.3474C20.8129 21.3326 20.8236 21.3215 20.8415 21.3215C20.8809 21.3215 21.035 21.0665 21.035 20.9999C21.035 20.974 21.0458 20.963 21.0601 20.9703C21.0888 20.9888 21.1855 20.804 21.1748 20.7559C21.1712 20.7412 21.182 20.7301 21.2035 20.7301C21.2429 20.7301 21.4436 20.2976 21.4471 20.1978C21.4471 20.1793 21.4651 20.1534 21.483 20.1423C21.5403 20.1054 21.7517 19.61 21.7553 19.5028C21.7589 19.4437 21.7697 19.3993 21.7876 19.3993C21.8019 19.3993 21.8306 19.3586 21.8485 19.3032C21.956 19.0186 22.1173 18.7265 22.1854 18.697C22.2284 18.6822 22.9307 18.6526 23.7478 18.6304C25.3783 18.5861 25.3496 18.5898 25.4607 18.3495C25.5575 18.1462 25.4177 17.8431 25.2063 17.8024C25.1633 17.795 24.5075 17.8024 23.7549 17.8209C23.0024 17.8394 22.3753 17.8468 22.3645 17.8357C22.3538 17.8283 22.3717 17.6693 22.4075 17.4919C22.4398 17.3108 22.4935 16.9226 22.5258 16.6269L22.5831 16.0909L23.0848 16.0835C23.3608 16.0761 24.8049 16.0428 26.2957 16.0022C28.8543 15.9356 29.0156 15.9282 29.1697 15.858C29.3059 15.7952 29.3417 15.7582 29.3739 15.6362C29.4098 15.5142 29.4098 15.4736 29.356 15.3738C29.2306 15.115 29.2378 15.1187 25.9158 15.2C24.7942 15.2259 23.5829 15.2481 23.2282 15.2444L22.5867 15.2407L22.5401 14.7416C22.4398 13.5735 22.4004 13.4478 22.1603 13.4478C21.9596 13.4478 21.9023 13.5218 21.9023 13.7694C21.9058 13.9617 21.9703 14.8119 21.9918 14.908C22.0098 14.993 21.9883 15.078 21.9273 15.1409C21.8664 15.2037 21.8378 15.2074 21.5511 15.163C21.3791 15.1372 21.035 15.0743 20.7842 15.0226C20.5298 14.9708 20.1822 14.9043 20.003 14.8747C19.659 14.8156 19.5085 14.786 18.91 14.6714C18.1001 14.5161 17.8385 14.4533 17.731 14.3868C17.6701 14.3498 17.6199 14.3017 17.6199 14.2833C17.6199 14.2648 18.3904 13.4515 19.3329 12.4793L21.0422 10.7124H23.2748C25.7259 10.7124 25.6578 10.7198 25.7725 10.4906C25.8406 10.3538 25.8406 10.2577 25.7725 10.1209C25.6578 9.89175 25.7331 9.89914 23.2031 9.89914H20.8953L20.8272 9.78085C20.7054 9.56645 20.1392 8.81235 19.8453 8.47597C18.9709 7.4668 18.5015 7.14151 18.265 7.38548C18.179 7.4742 18.1682 7.71078 18.2435 7.85864C18.29 7.95105 18.4836 8.12479 18.5409 8.12479C18.5803 8.12479 18.7667 8.31701 18.7667 8.36137C18.7667 8.37986 18.6699 8.49815 18.5516 8.62753C18.4334 8.75321 18.3366 8.84932 18.3366 8.83453C18.3366 8.82344 18.2829 8.86411 18.222 8.92325C18.1575 8.98609 17.8385 9.25224 17.5124 9.511C17.1863 9.77346 16.6739 10.2134 16.3693 10.4869C15.1939 11.5515 15.2154 11.5367 15.1473 11.4702C15.0613 11.3889 15.0326 10.5904 15.0362 8.21721C15.0398 6.32087 15.0075 5.34868 14.9359 5.20821C14.8642 5.07143 14.7137 5.05665 13.5562 5.06404C12.9434 5.06774 12.2625 5.07883 12.0439 5.08992ZM19.5192 9.85109C19.4798 9.91393 19.4798 9.91393 19.4977 9.85109C19.5085 9.81412 19.5192 9.76237 19.5228 9.74019C19.5228 9.70692 19.53 9.70692 19.5407 9.74019C19.5515 9.76607 19.5407 9.81412 19.5192 9.85109ZM16.1328 10.8972C16.1435 10.9157 16.1363 10.9342 16.1184 10.9342C16.0969 10.9342 16.079 10.9157 16.079 10.8972C16.079 10.875 16.0862 10.8603 16.0933 10.8603C16.1041 10.8603 16.122 10.875 16.1328 10.8972ZM15.9715 11.082C15.9715 11.1005 15.9536 11.119 15.9321 11.119C15.9142 11.119 15.907 11.1005 15.9177 11.082C15.9285 11.0599 15.9464 11.0451 15.9572 11.0451C15.9643 11.0451 15.9715 11.0599 15.9715 11.082ZM21.7195 19.4548C21.7302 19.4843 21.7231 19.5102 21.7052 19.5102C21.6837 19.5102 21.6693 19.4843 21.6693 19.4548C21.6693 19.4252 21.6765 19.3993 21.6837 19.3993C21.6908 19.3993 21.7052 19.4252 21.7195 19.4548ZM21.4901 19.9168C21.4901 19.9575 21.4758 19.9908 21.4543 19.9908C21.4364 19.9908 21.4185 19.9575 21.4185 19.9168C21.4185 19.8762 21.4364 19.8429 21.4543 19.8429C21.4758 19.8429 21.4901 19.8762 21.4901 19.9168ZM14.0543 19.9464C14.0543 20.0129 13.9826 20.0018 13.9719 19.9316C13.9611 19.8946 13.9755 19.8762 14.0077 19.8873C14.0328 19.8983 14.0543 19.9242 14.0543 19.9464ZM21.2142 20.634C21.225 20.6561 21.2035 20.682 21.1676 20.682C21.1318 20.6857 21.0924 20.6672 21.0852 20.6414C21.0745 20.6192 21.096 20.5933 21.1318 20.5933C21.1676 20.5896 21.207 20.6081 21.2142 20.634ZM14.1618 21.2106C14.1726 21.2291 14.1654 21.2476 14.1475 21.2476C14.126 21.2476 14.1081 21.2291 14.1081 21.2106C14.1081 21.1884 14.1152 21.1737 14.1224 21.1737C14.1331 21.1737 14.1511 21.1884 14.1618 21.2106ZM19.8704 22.571C19.8811 22.6042 19.8632 22.619 19.8202 22.6079C19.788 22.6042 19.7521 22.5747 19.7414 22.5488C19.7306 22.5155 19.7485 22.5007 19.7916 22.5118C19.8238 22.5155 19.8596 22.5451 19.8704 22.571Z" fill="white"/>
<path d="M16.2582 6.08059C16.1865 6.11756 16.1005 6.20628 16.0611 6.28391C15.9966 6.40959 15.993 6.43177 16.0432 6.57963C16.1471 6.88645 15.8891 6.86796 19.8166 6.87166C23.0024 6.87536 23.2927 6.87166 23.3751 6.81251C23.4933 6.73119 23.5722 6.53527 23.5471 6.38741C23.522 6.25803 23.35 6.09538 23.2353 6.08799C23.1923 6.08429 21.6908 6.08059 19.8955 6.0769C18.1037 6.0732 16.5771 6.05842 16.509 6.04363C16.4194 6.02145 16.3478 6.03254 16.2582 6.08059Z" fill="white"/>
<path d="M22.4398 7.85125C22.2785 7.87712 22.171 7.94366 22.1137 8.05826C22.0169 8.25048 22.0707 8.47966 22.2391 8.59426C22.3645 8.67928 22.834 8.69037 25.0916 8.6534C26.7508 8.62383 26.8905 8.61644 26.9837 8.5536C27.1629 8.42791 27.1736 8.10631 26.9981 7.96954C26.9551 7.93257 26.8547 7.8993 26.7759 7.88821C26.5931 7.86234 22.5831 7.83277 22.4398 7.85125Z" fill="white"/>
<path d="M21.4973 11.6439C21.3898 11.6994 21.3611 11.8361 21.4149 12.021C21.44 12.106 21.483 12.2723 21.5152 12.3943C21.6263 12.849 21.6908 13.019 21.784 13.0893C21.8664 13.1521 21.8987 13.1558 22.128 13.1188C22.2857 13.093 23.0132 13.0782 24.0309 13.0782H25.6829L25.7976 12.971C25.8979 12.8786 25.9158 12.8379 25.9158 12.69C25.9158 12.5422 25.8979 12.5015 25.7976 12.4091L25.6829 12.3019H23.9341C22.9737 12.3019 22.171 12.2871 22.1459 12.2723C22.1209 12.2575 22.0599 12.1282 22.0098 11.9877C21.956 11.8435 21.8879 11.6994 21.8593 11.6624C21.7948 11.5922 21.6227 11.5811 21.4973 11.6439Z" fill="white"/>
<path d="M27.3242 12.5126C27.0948 12.6605 27.0984 13.019 27.3277 13.178C27.4102 13.2371 27.5356 13.2445 28.4422 13.2556C29.0048 13.263 29.5316 13.2593 29.614 13.2445C29.9115 13.2002 30.0727 12.9488 29.9688 12.6937C29.8685 12.4498 29.8792 12.4498 28.5856 12.4498C27.5643 12.4498 27.4102 12.4609 27.3242 12.5126Z" fill="white"/>
<path d="M12.2446 15.2481C12.1479 15.285 12.1013 15.3811 12.1013 15.5623C12.1013 15.7656 12.155 15.8136 12.3844 15.8136C12.5779 15.8136 12.6746 15.7175 12.6746 15.5216C12.6746 15.2961 12.4668 15.1667 12.2446 15.2481Z" fill="white"/>
<path d="M26.6612 17.8061C26.353 17.8468 26.2025 18.0649 26.2921 18.3421C26.3674 18.5861 26.4068 18.5935 27.3958 18.5787C28.3598 18.5676 28.4136 18.5528 28.5067 18.3421C28.5856 18.1721 28.5605 18.0353 28.4279 17.8985L28.306 17.7728L27.5786 17.7765C27.1772 17.7802 26.7651 17.795 26.6612 17.8061Z" fill="white"/>
<defs>
<clipPath id="clip0_557_56">
<rect width="13.1289" height="28" fill="white" transform="translate(2 2)"/>
</clipPath>
</defs>
</svg>
