<svg width="162" height="25" viewBox="0 0 162 25" fill="none" xmlns="http://www.w3.org/2000/svg">
<path d="M16.8988 15.1247C15.9341 16.7925 14.3309 17.7497 12.5 17.7497C10.6691 17.7497 9.06594 16.7935 8.10031 15.1247C8.05107 15.0394 8.01911 14.9452 8.00626 14.8475C7.99341 14.7499 7.99993 14.6506 8.02544 14.5555C8.05094 14.4603 8.09494 14.3711 8.15492 14.293C8.2149 14.2148 8.28968 14.1493 8.375 14.1C8.46032 14.0508 8.5545 14.0188 8.65217 14.006C8.74984 13.9931 8.84908 13.9996 8.94423 14.0251C9.03938 14.0506 9.12858 14.0946 9.20673 14.1546C9.28487 14.2146 9.35044 14.2894 9.39969 14.3747C10.0991 15.585 11.1997 16.2497 12.5 16.2497C13.8003 16.2497 14.9009 15.5841 15.6012 14.3747C15.6481 14.2851 15.7127 14.2059 15.791 14.1418C15.8693 14.0778 15.9597 14.0302 16.0568 14.002C16.154 13.9739 16.2558 13.9656 16.3562 13.9778C16.4567 13.99 16.5536 14.0224 16.6411 14.073C16.7287 14.1236 16.8052 14.1915 16.8658 14.2724C16.9265 14.3533 16.9702 14.4457 16.9943 14.5439C17.0183 14.6422 17.0223 14.7443 17.0059 14.8441C16.9895 14.9439 16.953 15.0393 16.8988 15.1247ZM22.25 12.4997C22.2505 13.4706 22.1064 14.4362 21.8225 15.3647C21.7863 15.4819 21.7219 15.5885 21.635 15.675L15.6753 21.6347C15.5893 21.7218 15.483 21.7862 15.3659 21.8222C13.4043 22.4255 11.3024 22.3943 9.35948 21.7333C7.41658 21.0722 5.73181 19.815 4.54515 18.1406C3.35849 16.4661 2.73044 14.46 2.75046 12.4078C2.77049 10.3556 3.43756 8.36208 4.65668 6.71114C5.87579 5.0602 7.58477 3.83605 9.5402 3.21304C11.4956 2.59003 13.5978 2.59994 15.5472 3.24135C17.4967 3.88277 19.1941 5.12298 20.3976 6.78534C21.6011 8.4477 22.2493 10.4474 22.25 12.4997ZM20.75 12.4997C20.7479 10.7738 20.2038 9.09209 19.1946 7.69196C18.1854 6.29183 16.762 5.24396 15.1253 4.69621C13.4886 4.14846 11.7212 4.12849 10.0725 4.63913C8.42386 5.14976 6.97716 6.16522 5.93659 7.54219C4.89601 8.91916 4.3141 10.5881 4.27297 12.3136C4.23184 14.039 4.73356 15.7338 5.70734 17.1588C6.68112 18.5838 8.07779 19.667 9.70025 20.2556C11.3227 20.8443 13.089 20.9085 14.75 20.4394L20.4397 14.7497C20.6463 14.0176 20.7507 13.2604 20.75 12.4997ZM9.125 11.7497C9.3475 11.7497 9.56501 11.6837 9.75002 11.5601C9.93502 11.4365 10.0792 11.2608 10.1644 11.0552C10.2495 10.8497 10.2718 10.6235 10.2284 10.4052C10.185 10.187 10.0778 9.98654 9.9205 9.82921C9.76316 9.67188 9.56271 9.56473 9.34448 9.52132C9.12625 9.47791 8.90005 9.50019 8.69448 9.58534C8.48891 9.67049 8.31321 9.81468 8.1896 9.99969C8.06598 10.1847 8 10.4022 8 10.6247C8 10.9231 8.11853 11.2092 8.3295 11.4202C8.54048 11.6312 8.82663 11.7497 9.125 11.7497ZM15.875 9.49971C15.6525 9.49971 15.435 9.56569 15.25 9.6893C15.065 9.81292 14.9208 9.98862 14.8356 10.1942C14.7505 10.3998 14.7282 10.626 14.7716 10.8442C14.815 11.0624 14.9222 11.2629 15.0795 11.4202C15.2368 11.5775 15.4373 11.6847 15.6555 11.7281C15.8738 11.7715 16.1 11.7492 16.3055 11.6641C16.5111 11.5789 16.6868 11.4347 16.8104 11.2497C16.934 11.0647 17 10.8472 17 10.6247C17 10.3263 16.8815 10.0402 16.6705 9.82921C16.4595 9.61823 16.1734 9.49971 15.875 9.49971Z" fill="#DC366E"/>
<path d="M29.5114 18V6.36364H37.2159V8.39205H31.9716V11.1648H36.7045V13.1932H31.9716V18H29.5114ZM46.0582 6.36364H48.5185V13.9205C48.5185 14.7689 48.3158 15.5114 47.9105 16.1477C47.509 16.7841 46.9465 17.2803 46.223 17.6364C45.4995 17.9886 44.6567 18.1648 43.6946 18.1648C42.7287 18.1648 41.884 17.9886 41.1605 17.6364C40.437 17.2803 39.8745 16.7841 39.473 16.1477C39.0715 15.5114 38.8707 14.7689 38.8707 13.9205V6.36364H41.331V13.7102C41.331 14.1534 41.4276 14.5473 41.6207 14.892C41.8177 15.2367 42.0942 15.5076 42.4503 15.7045C42.8063 15.9015 43.2211 16 43.6946 16C44.1719 16 44.5866 15.9015 44.9389 15.7045C45.295 15.5076 45.5696 15.2367 45.7628 14.892C45.9598 14.5473 46.0582 14.1534 46.0582 13.7102V6.36364ZM60.2756 6.36364V18H58.1506L53.0881 10.6761H53.0028V18H50.5426V6.36364H52.7017L57.7244 13.6818H57.8267V6.36364H60.2756ZM61.8651 8.39205V6.36364H71.4219V8.39205H67.8594V18H65.4276V8.39205H61.8651ZM72.9957 18V6.36364H77.5866C78.4654 6.36364 79.2154 6.52083 79.8366 6.83523C80.4616 7.14583 80.937 7.58712 81.2628 8.15909C81.5923 8.72727 81.7571 9.39583 81.7571 10.1648C81.7571 10.9375 81.5904 11.6023 81.2571 12.1591C80.9238 12.7121 80.4408 13.1364 79.8082 13.4318C79.1795 13.7273 78.4181 13.875 77.5241 13.875H74.4503V11.8977H77.1264C77.5961 11.8977 77.9863 11.8333 78.2969 11.7045C78.6075 11.5758 78.8385 11.3826 78.9901 11.125C79.1454 10.8674 79.223 10.5473 79.223 10.1648C79.223 9.77841 79.1454 9.45265 78.9901 9.1875C78.8385 8.92235 78.6056 8.72159 78.2912 8.58523C77.9806 8.44508 77.5885 8.375 77.1151 8.375H75.456V18H72.9957ZM79.2798 12.7045L82.1719 18H79.456L76.6264 12.7045H79.2798ZM85.5014 18H82.8651L86.8821 6.36364H90.0526L94.0639 18H91.4276L88.5128 9.02273H88.4219L85.5014 18ZM85.3366 13.4261H91.5639V15.3466H85.3366V13.4261ZM105.197 6.36364V18H103.072L98.0099 10.6761H97.9247V18H95.4645V6.36364H97.6236L102.646 13.6818H102.749V6.36364H105.197ZM113.543 9.71023C113.497 9.25189 113.302 8.89583 112.957 8.64205C112.613 8.38826 112.145 8.26136 111.554 8.26136C111.152 8.26136 110.813 8.31818 110.537 8.43182C110.26 8.54167 110.048 8.69508 109.901 8.89205C109.757 9.08902 109.685 9.3125 109.685 9.5625C109.677 9.77083 109.721 9.95265 109.815 10.108C109.914 10.2633 110.048 10.3977 110.219 10.5114C110.389 10.6212 110.586 10.7178 110.81 10.8011C111.033 10.8807 111.272 10.9489 111.526 11.0057L112.571 11.2557C113.079 11.3693 113.545 11.5208 113.969 11.7102C114.393 11.8996 114.76 12.1326 115.071 12.4091C115.382 12.6856 115.622 13.0114 115.793 13.3864C115.967 13.7614 116.056 14.1913 116.06 14.6761C116.056 15.3883 115.874 16.0057 115.514 16.5284C115.158 17.0473 114.643 17.4508 113.969 17.7386C113.298 18.0227 112.49 18.1648 111.543 18.1648C110.603 18.1648 109.785 18.0208 109.088 17.733C108.395 17.4451 107.853 17.0189 107.463 16.4545C107.077 15.8864 106.874 15.1837 106.855 14.3466H109.236C109.262 14.7367 109.374 15.0625 109.571 15.3239C109.772 15.5814 110.039 15.7765 110.372 15.9091C110.709 16.0379 111.09 16.1023 111.514 16.1023C111.931 16.1023 112.293 16.0417 112.599 15.9205C112.91 15.7992 113.151 15.6307 113.321 15.4148C113.491 15.1989 113.577 14.9508 113.577 14.6705C113.577 14.4091 113.499 14.1894 113.344 14.0114C113.192 13.8333 112.969 13.6818 112.673 13.5568C112.382 13.4318 112.024 13.3182 111.599 13.2159L110.332 12.8977C109.351 12.6591 108.577 12.286 108.009 11.7784C107.44 11.2708 107.158 10.5871 107.162 9.72727C107.158 9.02273 107.346 8.4072 107.724 7.88068C108.107 7.35417 108.632 6.94318 109.298 6.64773C109.965 6.35227 110.723 6.20455 111.571 6.20455C112.435 6.20455 113.188 6.35227 113.832 6.64773C114.48 6.94318 114.984 7.35417 115.344 7.88068C115.704 8.4072 115.889 9.01705 115.901 9.71023H113.543ZM117.714 18V6.36364H122.305C123.188 6.36364 123.94 6.5322 124.561 6.86932C125.182 7.20265 125.656 7.66667 125.982 8.26136C126.311 8.85227 126.476 9.53409 126.476 10.3068C126.476 11.0795 126.309 11.7614 125.976 12.3523C125.643 12.9432 125.16 13.4034 124.527 13.733C123.898 14.0625 123.137 14.2273 122.243 14.2273H119.317V12.2557H121.845C122.319 12.2557 122.709 12.1742 123.016 12.0114C123.326 11.8447 123.557 11.6155 123.709 11.3239C123.864 11.0284 123.942 10.6894 123.942 10.3068C123.942 9.92045 123.864 9.58333 123.709 9.29545C123.557 9.00379 123.326 8.77841 123.016 8.61932C122.705 8.45644 122.311 8.375 121.834 8.375H120.175V18H117.714ZM138.767 12.1818C138.767 13.4508 138.527 14.5303 138.045 15.4205C137.568 16.3106 136.917 16.9905 136.091 17.4602C135.269 17.9261 134.345 18.1591 133.318 18.1591C132.284 18.1591 131.356 17.9242 130.534 17.4545C129.712 16.9848 129.063 16.3049 128.585 15.4148C128.108 14.5246 127.869 13.447 127.869 12.1818C127.869 10.9129 128.108 9.83333 128.585 8.94318C129.063 8.05303 129.712 7.375 130.534 6.90909C131.356 6.43939 132.284 6.20455 133.318 6.20455C134.345 6.20455 135.269 6.43939 136.091 6.90909C136.917 7.375 137.568 8.05303 138.045 8.94318C138.527 9.83333 138.767 10.9129 138.767 12.1818ZM136.273 12.1818C136.273 11.3598 136.15 10.6667 135.903 10.1023C135.661 9.53788 135.318 9.10985 134.875 8.81818C134.432 8.52652 133.913 8.38068 133.318 8.38068C132.723 8.38068 132.205 8.52652 131.761 8.81818C131.318 9.10985 130.973 9.53788 130.727 10.1023C130.485 10.6667 130.364 11.3598 130.364 12.1818C130.364 13.0038 130.485 13.697 130.727 14.2614C130.973 14.8258 131.318 15.2538 131.761 15.5455C132.205 15.8371 132.723 15.983 133.318 15.983C133.913 15.983 134.432 15.8371 134.875 15.5455C135.318 15.2538 135.661 14.8258 135.903 14.2614C136.15 13.697 136.273 13.0038 136.273 12.1818ZM140.589 18V6.36364H145.18C146.059 6.36364 146.809 6.52083 147.43 6.83523C148.055 7.14583 148.531 7.58712 148.857 8.15909C149.186 8.72727 149.351 9.39583 149.351 10.1648C149.351 10.9375 149.184 11.6023 148.851 12.1591C148.518 12.7121 148.035 13.1364 147.402 13.4318C146.773 13.7273 146.012 13.875 145.118 13.875H142.044V11.8977H144.72C145.19 11.8977 145.58 11.8333 145.891 11.7045C146.201 11.5758 146.432 11.3826 146.584 11.125C146.739 10.8674 146.817 10.5473 146.817 10.1648C146.817 9.77841 146.739 9.45265 146.584 9.1875C146.432 8.92235 146.199 8.72159 145.885 8.58523C145.574 8.44508 145.182 8.375 144.709 8.375H143.05V18H140.589ZM146.874 12.7045L149.766 18H147.05L144.22 12.7045H146.874ZM150.646 8.39205V6.36364H160.203V8.39205H156.641V18H154.209V8.39205H150.646Z" fill="#0B0B0B"/>
</svg>
